<svg xmlns="http://www.w3.org/2000/svg">
    <defs>
        <symbol id="magnify">
            <path fill-rule="evenodd" clip-rule="evenodd" d="M9.5,3A6.5,6.5 0 0,1 16,9.5C16,11.11 15.41,12.59 14.44,13.73L14.71,14H15.5L20.5,19L19,20.5L14,
            15.5V14.71L13.73,14.44C12.59,15.41 11.11,16 9.5,16A6.5,6.5 0 0,1 3,9.5A6.5,6.5 0 0,1 9.5,3M9.5,5C7,5 5,
            7 5,9.5C5,12 7,14 9.5,14C12,14 14,12 14,9.5C14,7 12,5 9.5,5Z" fill="currentColor" />
        </symbol>
        <symbol id="right">
            <path fill-rule="evenodd" clip-rule="evenodd"
                d="M8.59,16.58L13.17,12L8.59,7.41L10,6L16,12L10,18L8.59,16.58Z" fill="currentColor" />
        </symbol>
        <symbol id="attachment">
            <path fill-rule="evenodd" clip-rule="evenodd"
                d="M7.18662 13.5L14.7628 5.92389L15.7056 6.8667L8.12943 14.4428L7.18662 13.5Z" fill="currentColor" />
            <path fill-rule="evenodd" clip-rule="evenodd"
                d="M9.70067 16.0141L17.2768 8.43793L18.2196 9.38074L10.6435 16.9569L9.70067 16.0141Z"
                fill="currentColor" />
            <path fill-rule="evenodd" clip-rule="evenodd"
                d="M15.0433 21.3567L22.6195 13.7806L23.5623 14.7234L15.9861 22.2995L15.0433 21.3567Z"
                fill="currentColor" />
            <path fill-rule="evenodd" clip-rule="evenodd"
                d="M17.5574 23.8708L25.1335 16.2946L26.0763 17.2374L18.5002 24.8136L17.5574 23.8708Z"
                fill="currentColor" />
            <path fill-rule="evenodd" clip-rule="evenodd"
                d="M17.5574 23.8709C14.9423 26.486 10.7118 26.4954 8.10831 23.8919C5.50482 21.2884 5.51424 17.0579 8.12936 14.4428L7.18655 13.5C4.0484 16.6381 4.0371 21.7148 7.16129 24.839C10.2855 27.9632 15.3621 27.9518 18.5003 24.8137L17.5574 23.8709Z"
                fill="currentColor" />
            <path fill-rule="evenodd" clip-rule="evenodd"
                d="M22.6195 13.7806L23.5623 14.7234C26.003 12.2826 26.0118 8.3341 23.5819 5.90417C21.152 3.47424 17.2035 3.48303 14.7627 5.92381L15.7055 6.86662C17.6233 4.94887 20.7257 4.94196 22.6349 6.85119C24.5441 8.76042 24.5372 11.8628 22.6195 13.7806Z"
                fill="currentColor" />
            <path fill-rule="evenodd" clip-rule="evenodd"
                d="M9.70092 16.0144C7.95751 17.7578 7.95123 20.5782 9.68689 22.3138C11.4226 24.0495 14.2429 24.0432 15.9863 22.2998L15.0435 21.357C13.8231 22.5774 11.8489 22.5818 10.6339 21.3668C9.41894 20.1518 9.42334 18.1776 10.6437 16.9572L9.70092 16.0144Z"
                fill="currentColor" />
        </symbol>

        <symbol id="arrow-right" width="20" height="20" viewBox="0 0 20 20">
            <path fill-rule="evenodd" clip-rule="evenodd"
                d="M4,11V13H16L10.5,18.5L11.92,19.92L19.84,12L11.92,4.08L10.5,5.5L16,11H4Z" fill="currentColor" />
        </symbol>
        <symbol id="seen">
            <line y1="-0.5" x2="3.765" y2="-0.5"
                transform="matrix(0.705933 0.708278 -0.705933 0.708278 0.700195 2.33313)" stroke="currentColor" />
            <line y1="-0.5" x2="5.6475" y2="-0.5"
                transform="matrix(0.705933 -0.708278 0.705933 0.708278 3.35828 5.00006)" stroke="currentColor" />
            <line y1="-0.5" x2="5.6475" y2="-0.5"
                transform="matrix(0.705933 -0.708278 0.705933 0.708278 6.01587 5.00006)" stroke="currentColor" />
        </symbol>
    </defs>
</svg>